<svg width="20" height="15" viewBox="0 0 20 15" fill="none" xmlns="http://www.w3.org/2000/svg">
<path d="M15.834 4.16671L12.5006 7.50004H15.0006C15.0006 10.2625 12.7631 12.5 10.0007 12.5C9.15482 12.5 8.36315 12.2875 7.66315 11.9209L6.44648 13.1375C7.47982 13.7834 8.69232 14.1667 10.0007 14.1667C13.684 14.1667 16.6673 11.1834 16.6673 7.50004H19.1673L15.834 4.16671ZM5.00065 7.50004C5.00065 4.73754 7.23815 2.50004 10.0007 2.50004C10.8465 2.50004 11.6382 2.71254 12.3382 3.07921L13.5548 1.86254C12.5215 1.21671 11.309 0.833374 10.0007 0.833374C6.31732 0.833374 3.33398 3.81671 3.33398 7.50004H0.833984L4.16732 10.8334L7.50065 7.50004H5.00065Z" fill="#E0E0E0"/>
</svg>
