<svg  width="138" height="30" viewBox="0 0 138 30" fill="none" xmlns="http://www.w3.org/2000/svg">
<g clip-path="url(#clip0_1702_10032)">
<path d="M12.7709 0C5.7522 0 0 5.70681 0 12.6702C0 15.8639 1.16099 18.7435 3.11358 20.9948C3.58853 20.8377 4.11625 20.733 4.64398 20.733C7.07151 20.733 9.02409 22.5654 9.28795 24.8691C10.3962 25.1832 11.5572 25.3403 12.7709 25.3403C19.8424 25.3403 25.5419 19.6335 25.5419 12.6702C25.5946 5.70681 19.8424 0 12.7709 0ZM12.7709 19.4241C9.02409 19.4241 6.01606 16.4398 6.01606 12.7225C6.01606 9.00524 9.02409 6.02094 12.7709 6.02094C16.5178 6.02094 19.5258 9.00524 19.5258 12.7225C19.5258 16.3874 16.5178 19.4241 12.7709 19.4241Z" fill="#1565C0"/>
<path class="svg-logo" d="M3.11358 20.9948C1.31931 21.623 0 23.3508 0 25.3927C0 27.9581 2.1109 30 4.64398 30C7.22983 30 9.28795 27.9057 9.28795 25.3927C9.28795 25.2356 9.28795 25.0785 9.28795 24.9215C6.86042 24.2408 4.74952 22.8272 3.11358 20.9948Z" fill="url(#paint0_linear_1702_10032)"/>
<path d="M40.5813 19.5811V24.9738H36.1484V5.60205H44.5393C48.9721 5.60205 51.5052 8.69106 51.5052 12.4607C51.5052 16.4397 48.7611 19.5811 44.1699 19.5811H40.5813ZM40.5813 9.63346V15.602H44.0643C45.9641 15.602 47.0723 14.3979 47.0723 12.6178C47.0723 10.8377 45.9641 9.68582 43.906 9.68582H40.5813V9.63346Z" fill="#272557"/>
<path d="M53.7734 25.0261V10.4711H57.7314V12.4607C58.734 11.1518 60.1589 10.2617 62.0059 10.2617V14.2408C59.0507 14.2408 57.7841 15.8638 57.7841 18.3769V25.0261H53.7734Z" fill="#272557"/>
<path d="M78.6285 17.801C78.6285 21.9895 75.2511 25.3402 70.7654 25.3402C66.2798 25.3402 62.9023 22.0418 62.9023 17.801C62.9023 13.5601 66.2798 10.2094 70.7654 10.2094C75.2511 10.2094 78.6285 13.5601 78.6285 17.801ZM66.8075 17.801C66.8075 20.1046 68.4434 21.8324 70.6599 21.8324C72.8763 21.8324 74.6706 20.1046 74.6706 17.801C74.6706 15.445 72.9819 13.7696 70.7127 13.7696C68.4435 13.7696 66.8075 15.445 66.8075 17.801Z" fill="#272557"/>
<path d="M84.4872 11.9371C85.226 11.0994 86.7036 10.2094 88.7618 10.2094C92.192 10.2094 94.4084 12.5654 94.4084 16.0732V24.9737H90.4505V16.7539C90.4505 15.0261 89.5006 13.8219 87.7591 13.8219C85.8065 13.8219 84.54 15.0261 84.54 17.068V24.9737H80.582V10.4711H84.4872V11.9371Z" fill="#272557"/>
<path d="M105.12 24.5026C103.748 28.3769 102.007 30 98.3654 30H96.9406V26.4398H98.1543C99.4736 26.4398 100.318 25.7068 100.846 24.555L95.4102 10.4188H99.9486L102.957 19.3717L105.912 10.4188H110.028L105.12 24.5026Z" fill="#272557"/>
<path d="M109.82 25.0261V20.9424H113.937V25.0261H109.82Z" fill="#272557"/>
<path d="M116.258 9.21462V5.60205H120.216V9.21462H116.258ZM116.258 25.0261V10.4712H120.216V24.9738H116.258V25.0261Z" fill="#272557"/>
<path d="M138 17.801C138 21.9895 134.622 25.3402 130.137 25.3402C125.651 25.3402 122.273 22.0418 122.273 17.801C122.273 13.5601 125.651 10.2094 130.137 10.2094C134.622 10.2094 138 13.5601 138 17.801ZM126.179 17.801C126.179 20.1046 127.815 21.8324 130.031 21.8324C132.247 21.8324 134.042 20.1046 134.042 17.801C134.042 15.445 132.353 13.7696 130.084 13.7696C127.815 13.7696 126.179 15.445 126.179 17.801Z" fill="#272557"/>
</g>
<defs>
<linearGradient id="paint0_linear_1702_10032" x1="21.413" y1="5.00627" x2="2.94388" y2="27.8372" gradientUnits="userSpaceOnUse">
<stop stop-color="#2AFFA9"/>
<stop offset="1" stop-color="#03B8FD"/>
</linearGradient>
<clipPath id="clip0_1702_10032">
<rect width="138" height="30" fill="white"/>
</clipPath>
</defs>
</svg>
