<svg width="12" height="15" viewBox="0 0 12 15" fill="none" xmlns="http://www.w3.org/2000/svg">
<path d="M9.99935 4.83335H9.33268V3.50002C9.33268 1.66002 7.83935 0.166687 5.99935 0.166687C4.15935 0.166687 2.66602 1.66002 2.66602 3.50002V4.83335H1.99935C1.26268 4.83335 0.666016 5.43002 0.666016 6.16669V12.8334C0.666016 13.57 1.26268 14.1667 1.99935 14.1667H9.99935C10.736 14.1667 11.3327 13.57 11.3327 12.8334V6.16669C11.3327 5.43002 10.736 4.83335 9.99935 4.83335ZM5.99935 10.8334C5.26268 10.8334 4.66602 10.2367 4.66602 9.50002C4.66602 8.76335 5.26268 8.16669 5.99935 8.16669C6.73602 8.16669 7.33268 8.76335 7.33268 9.50002C7.33268 10.2367 6.73602 10.8334 5.99935 10.8334ZM8.06602 4.83335H3.93268V3.50002C3.93268 2.36002 4.85935 1.43335 5.99935 1.43335C7.13935 1.43335 8.06602 2.36002 8.06602 3.50002V4.83335Z" fill="#1565C0"/>
</svg>
