<svg width="12" height="15" viewBox="0 0 12 15" fill="none" xmlns="http://www.w3.org/2000/svg">
<path d="M5.99935 10.8333C6.73602 10.8333 7.33268 10.2367 7.33268 9.49999C7.33268 8.76332 6.73602 8.16666 5.99935 8.16666C5.26268 8.16666 4.66602 8.76332 4.66602 9.49999C4.66602 10.2367 5.26268 10.8333 5.99935 10.8333ZM9.99935 4.83332H9.33268V3.49999C9.33268 1.65999 7.83935 0.166656 5.99935 0.166656C4.15935 0.166656 2.66602 1.65999 2.66602 3.49999H3.93268C3.93268 2.35999 4.85935 1.43332 5.99935 1.43332C7.13935 1.43332 8.06602 2.35999 8.06602 3.49999V4.83332H1.99935C1.26268 4.83332 0.666016 5.42999 0.666016 6.16666V12.8333C0.666016 13.57 1.26268 14.1667 1.99935 14.1667H9.99935C10.736 14.1667 11.3327 13.57 11.3327 12.8333V6.16666C11.3327 5.42999 10.736 4.83332 9.99935 4.83332ZM9.99935 12.8333H1.99935V6.16666H9.99935V12.8333Z" fill="#E0E0E0"/>
</svg>
