<svg width="23" height="14" viewBox="0 0 23 14" fill="none" xmlns="http://www.w3.org/2000/svg">
<g clip-path="url(#clip0_1749_14062)">
<g filter="url(#filter0_d_1749_14062)">
<path d="M-165 18.0604C-165 15.299 -162.761 13.0604 -160 13.0604H0.204956L11.7193 0L23.2335 13.0604H233C235.761 13.0604 238 15.299 238 18.0604V263C238 265.761 235.761 268 233 268H-160C-162.761 268 -165 265.761 -165 263V18.0604Z" fill="white"/>
<path d="M0.204956 13.5604H0.43071L0.580017 13.3911L11.7193 0.756104L22.8585 13.3911L23.0078 13.5604H23.2335H233C235.485 13.5604 237.5 15.5751 237.5 18.0604V263C237.5 265.485 235.485 267.5 233 267.5H-160C-162.485 267.5 -164.5 265.485 -164.5 263V18.0604C-164.5 15.5751 -162.485 13.5604 -160 13.5604H0.204956Z" stroke="#E0E0E0"/>
</g>
</g>
<defs>
<filter id="filter0_d_1749_14062" x="-185" y="-20" width="443" height="308" filterUnits="userSpaceOnUse" color-interpolation-filters="sRGB">
<feFlood flood-opacity="0" result="BackgroundImageFix"/>
<feColorMatrix in="SourceAlpha" type="matrix" values="0 0 0 0 0 0 0 0 0 0 0 0 0 0 0 0 0 0 127 0" result="hardAlpha"/>
<feOffset/>
<feGaussianBlur stdDeviation="10"/>
<feColorMatrix type="matrix" values="0 0 0 0 0 0 0 0 0 0 0 0 0 0 0 0 0 0 0.05 0"/>
<feBlend mode="normal" in2="BackgroundImageFix" result="effect1_dropShadow_1749_14062"/>
<feBlend mode="normal" in="SourceGraphic" in2="effect1_dropShadow_1749_14062" result="shape"/>
</filter>
<clipPath id="clip0_1749_14062">
<rect width="23" height="14" fill="white"/>
</clipPath>
</defs>
</svg>
