<svg width="18" height="18" viewBox="0 0 18 18" fill="none" xmlns="http://www.w3.org/2000/svg">
<path d="M15.1916 9.81258C15.225 9.54592 15.25 9.27508 15.25 9.00008C15.25 8.72508 15.225 8.45425 15.1916 8.18758L16.9541 6.80841C17.1125 6.68341 17.1583 6.45841 17.0541 6.27508L15.3875 3.38758C15.2833 3.20841 15.0666 3.13341 14.8791 3.20841L12.8041 4.04591C12.375 3.71675 11.9041 3.43758 11.3958 3.22508L11.0833 1.01675C11.0458 0.820915 10.875 0.666748 10.6666 0.666748H7.33331C7.12498 0.666748 6.95414 0.820915 6.92081 1.01675L6.60831 3.22508C6.09998 3.43758 5.62914 3.71258 5.19998 4.04591L3.12498 3.20841C2.93748 3.13758 2.72081 3.20841 2.61665 3.38758L0.949978 6.27508C0.845812 6.45425 0.891645 6.67925 1.04998 6.80841L2.80831 8.18758C2.77498 8.45425 2.74998 8.72508 2.74998 9.00008C2.74998 9.27508 2.77498 9.54592 2.80831 9.81258L1.04998 11.1917C0.891645 11.3167 0.845812 11.5417 0.949978 11.7251L2.61665 14.6126C2.72081 14.7917 2.93748 14.8667 3.12498 14.7917L5.19998 13.9542C5.62914 14.2834 6.09998 14.5626 6.60831 14.7751L6.92081 16.9834C6.95414 17.1792 7.12498 17.3334 7.33331 17.3334H10.6666C10.875 17.3334 11.0458 17.1792 11.0791 16.9834L11.3916 14.7751C11.9 14.5626 12.3708 14.2876 12.8 13.9542L14.875 14.7917C15.0625 14.8626 15.2791 14.7917 15.3833 14.6126L17.05 11.7251C17.1541 11.5459 17.1083 11.3209 16.95 11.1917L15.1916 9.81258V9.81258ZM8.99998 11.9167C7.38748 11.9167 6.08331 10.6126 6.08331 9.00008C6.08331 7.38758 7.38748 6.08341 8.99998 6.08341C10.6125 6.08341 11.9166 7.38758 11.9166 9.00008C11.9166 10.6126 10.6125 11.9167 8.99998 11.9167Z" fill="#E0E0E0"/>
</svg>
